<svg width="30" height="25" viewBox="0 0 30 25" fill="none" xmlns="http://www.w3.org/2000/svg">
<path fill-rule="evenodd" clip-rule="evenodd" d="M12.621 1.9998C14.9235 -0.346619 18.6542 -0.726386 21.1627 1.38494C21.2488 1.45751 21.3325 1.5318 21.4137 1.60772L9.41699 18.5291L1.82244 10.7842C-0.750162 8.15745 -0.599102 3.80821 2.27562 1.38494C4.78414 -0.726386 8.51945 -0.346619 10.8174 1.9998L11.7192 2.91757L12.621 1.9998ZM22.099 10.2259C22.2115 10.0809 22.3168 9.93218 22.4151 9.78008L22.099 10.2259Z" fill="white"/>
<rect width="21.0481" height="1.73674" transform="matrix(0.578361 -0.815781 0.822481 0.568793 10.313 19.4443)" fill="white"/>
<path fill-rule="evenodd" clip-rule="evenodd" d="M15.9371 16.6696V25.0009L22.9684 20.95L29.9997 25.0009V8.21853C29.9997 7.25969 29.2127 6.48242 28.2419 6.48242H23.1595L15.9371 16.6696Z" fill="white"/>
</svg>
