<svg width="23" height="20" viewBox="0 0 23 20" fill="none" xmlns="http://www.w3.org/2000/svg">
<path fill-rule="evenodd" clip-rule="evenodd" d="M6 6C7.65685 6 9 4.65685 9 3C9 1.34315 7.65685 0 6 0C4.34315 0 3 1.34315 3 3C3 4.65685 4.34315 6 6 6ZM6 5C7.10457 5 8 4.10457 8 3C8 1.89543 7.10457 1 6 1C4.89543 1 4 1.89543 4 3C4 4.10457 4.89543 5 6 5Z" fill="#31334E"/>
<rect x="8" y="2" width="15" height="2" rx="1" fill="#31334E"/>
<rect y="2" width="4" height="2" rx="1" fill="#31334E"/>
<path fill-rule="evenodd" clip-rule="evenodd" d="M18 13C19.6569 13 21 11.6569 21 10C21 8.34315 19.6569 7 18 7C16.3431 7 15 8.34315 15 10C15 11.6569 16.3431 13 18 13ZM18 12C19.1046 12 20 11.1046 20 10C20 8.89543 19.1046 8 18 8C16.8954 8 16 8.89543 16 10C16 11.1046 16.8954 12 18 12Z" fill="#31334E"/>
<rect x="20" y="9" width="3" height="2" rx="1" fill="#31334E"/>
<rect y="9" width="16" height="2" rx="1" fill="#31334E"/>
<path fill-rule="evenodd" clip-rule="evenodd" d="M9 20C10.6569 20 12 18.6569 12 17C12 15.3431 10.6569 14 9 14C7.34315 14 6 15.3431 6 17C6 18.6569 7.34315 20 9 20ZM9 19C10.1046 19 11 18.1046 11 17C11 15.8954 10.1046 15 9 15C7.89543 15 7 15.8954 7 17C7 18.1046 7.89543 19 9 19Z" fill="#31334E"/>
<rect x="11" y="16" width="12" height="2" rx="1" fill="#31334E"/>
<rect y="16" width="7" height="2" rx="1" fill="#31334E"/>
</svg>
