<svg width="8" height="12" viewBox="0 0 8 12" fill="none" xmlns="http://www.w3.org/2000/svg">
<path d="M4 11.6093C3.89336 11.4789 3.74671 11.2963 3.5728 11.0713C3.2009 10.5902 2.70539 9.91655 2.21032 9.1461C1.71483 8.37499 1.2226 7.51125 0.854945 6.64955C0.485985 5.7848 0.25 4.93932 0.25 4.2C0.25 2.00444 1.938 0.25 4 0.25C6.062 0.25 7.75 2.00444 7.75 4.2C7.75 4.93932 7.51402 5.7848 7.14506 6.64955C6.7774 7.51125 6.28517 8.37499 5.78968 9.1461C5.29461 9.91655 4.7991 10.5902 4.4272 11.0713C4.25329 11.2963 4.10664 11.4789 4 11.6093ZM2.32143 4.2C2.32143 5.15444 3.062 5.95 4 5.95C4.938 5.95 5.67857 5.15444 5.67857 4.2C5.67857 3.24556 4.938 2.45 4 2.45C3.062 2.45 2.32143 3.24556 2.32143 4.2Z" stroke="black" stroke-width="0.5"/>
</svg>
