<svg width="50" height="50" viewBox="0 0 50 50" fill="none" xmlns="http://www.w3.org/2000/svg">
<rect width="50" height="50" rx="8" fill="black"/>
<path d="M1.58008 31.6858C1.58008 36.1003 9.43324 36.2397 9.43324 31.6858V23.5074C11.0132 24.7155 15.4741 24.1579 15.4741 21.091V5.98877C15.4741 2.92173 11.6173 -0.0519987 8.4574 1.76014C4.64699 3.94538 1.58012 8.17291 1.58008 11.1003V31.6858Z" fill="black"/>
<path d="M13.1607 20.8039C13.1607 22.6191 10.0749 22.483 10.0749 20.8039V11.4557C10.0749 9.6405 7.12525 9.68588 7.12525 11.4557V31.4455C7.12525 32.3352 6.404 33.0565 5.51429 33.0565C4.62457 33.0565 3.90332 32.3352 3.90332 31.4455V12.0456C3.90332 4.31299 13.1607 9.05669 13.1607 16.7893V20.8039Z" fill="#F9C16A"/>
<path opacity="0.5" d="M6.13379 28.6367V12.9352C6.13379 12.2545 6.81448 11.71 7.44979 11.71V27.1391L6.13379 28.6367Z" fill="black"/>
<circle cx="13.8476" cy="35.8476" r="13.8476" fill="black"/>
<ellipse cx="13.8476" cy="35.8481" rx="11.3383" ry="11.3384" fill="#F9C16A"/>
<path opacity="0.5" d="M20.4919 39.0075C13.6397 39.0075 10.7808 41.095 10.7808 47.675C24.8858 49.2581 28.4034 42.1281 20.4919 39.0075Z" fill="black"/>
<path d="M20.9651 39.5794C24.8124 39.7372 28.2822 39.8189 30.9113 38.0527C38.0044 33.288 28.7984 23.785 20.2536 23.785C18.6359 23.785 16.9943 23.5851 15.5929 22.7769C6.40315 17.4773 0.556159 0 11.1788 0H39.4245C45.6859 0 49.8601 4.6729 49.8601 10.1869L49.9993 40.9457C49.9993 45.7243 45.3841 50 40.9999 50H31.3836C20.4546 50 10.0361 39.5794 20.9651 39.5794Z" fill="black"/>
<path d="M21.6562 41.9016C28.9977 42.356 32.9352 40.8356 35.0715 37.19C39.5214 29.5965 30.4017 21.503 21.6004 21.503C18.9428 21.503 16.246 20.8994 14.3493 19.0378C8.50647 13.3031 4.25192 2.33661 11.601 2.33661H39.38C44.7049 2.33661 47.5328 6.30679 47.5328 10.5508V39.4829C47.5328 43.8182 43.3517 47.6971 39.38 47.6971H26.2823C19.1761 47.6971 14.55 41.9016 21.6562 41.9016Z" fill="#A9AC93"/>
<path d="M26.2234 8.99495C26.0441 10.0348 27.4819 11.3521 27.8873 10.3815C28.8879 7.98551 29.9518 8.46685 31.3384 8.46685V5.90057C28.8425 5.34593 26.6269 6.65463 26.2234 8.99495Z" fill="black" stroke="black"/>
<path d="M34.6511 9.03861C34.8304 10.0724 33.3925 11.3819 32.9872 10.417C31.9866 8.03512 30.9227 8.51362 29.5361 8.51362V5.82455C31.8235 5.46085 34.2476 6.71208 34.6511 9.03861Z" fill="black" stroke="black"/>
<path d="M21.2236 42C12.627 42.5112 12.7199 47.8507 16.2527 47.8507C17.2014 47.8507 21.1386 47 22.5 47C24.0601 46.1307 23.3663 43.26 24.1047 42.0929L21.2236 42Z" fill="white"/>
<path d="M49.9268 14.568H47.6963L47.6963 26.1386C47.6963 29.8002 38.635 29.7848 38.635 26.1386V14.568C38.635 12.9881 36.4312 12.9881 36.4312 14.568V26.278C36.4311 32.4119 49.9268 32.4119 49.9268 26.278V14.568Z" fill="black"/>
<path d="M38.1527 32.7106C38.1649 23.5631 38.6166 20.0737 36.3479 16.0782C34.2564 16.1711 32.2429 17.1459 29.6179 20.817C25.6752 20.3524 24.0981 20.3524 20.5728 20.817C18.2354 17.2818 16.0271 16.264 14.0288 16.0782C11.2958 20.0272 11.8971 23.3503 12.0843 32.7106C13.6497 46.2896 36.9913 45.4028 38.1527 32.7106Z" fill="black"/>
<path d="M36.1503 32.1837C36.2917 24.6748 36.1617 20.5436 35.1849 18.5875C34.2538 18.6968 32.9659 20.2324 30.5761 23.2343C26.2539 22.4393 23.8361 22.4509 19.4702 23.2343C17.3423 20.3435 16.1857 18.8839 14.866 18.5875C13.8013 20.3748 13.8681 24.5297 14.0386 32.1837C15.4636 43.2873 35.093 42.5621 36.1503 32.1837Z" fill="#F9C16A"/>
<g filter="url(#filter0_i)">
<path d="M30.5763 23.2339C31.6989 21.3166 34.3278 18.1224 35.316 18.1224C35.8101 19.0627 36.1525 22.2516 36.1525 24.535C34.8947 23.5053 32.2393 23.2941 30.5763 23.2339Z" fill="#FFBFB6"/>
</g>
<g filter="url(#filter1_i)">
<path d="M30.5762 23.234C31.4041 20.9874 34.488 18.1224 35.3159 18.1224C35.3159 19.9563 31.4996 22.4779 30.5762 23.234Z" fill="#FC9B8E"/>
</g>
<g filter="url(#filter2_i)">
<path d="M19.4702 23.2339C18.3361 21.2907 15.7752 18.1224 14.7769 18.1224C13.9148 19.1447 13.9405 22.2207 13.9405 24.535C15.211 23.4913 17.7903 23.2949 19.4702 23.2339Z" fill="#FFBFB6"/>
</g>
<g filter="url(#filter3_i)">
<path d="M19.4695 23.2339C18.6331 20.957 15.6125 18.1224 14.7761 18.1224C14.7761 19.9811 18.5366 22.4676 19.4695 23.2339Z" fill="#FC9B8E"/>
</g>
<path d="M27.8133 28.3251C27.6959 29.0057 28.6371 29.8679 28.9024 29.2326C29.5573 27.6644 30.2537 27.9794 31.1613 27.9794V26.2997C29.5276 25.9366 28.0774 26.7932 27.8133 28.3251Z" fill="black" stroke="black"/>
<path d="M33.3294 28.3527C33.4468 29.0293 32.5056 29.8865 32.2403 29.2549C31.5854 27.6959 30.889 28.0091 29.9814 28.0091V26.249C31.4786 26.0109 33.0653 26.8299 33.3294 28.3527Z" fill="black" stroke="black"/>
<path d="M16.8319 28.3251C16.7145 29.0057 17.6556 29.8679 17.9209 29.2326C18.5759 27.6644 19.2723 27.9794 20.1798 27.9794V26.2997C18.5462 25.9366 17.096 26.7932 16.8319 28.3251Z" fill="black" stroke="black"/>
<path d="M22.3478 28.3527C22.4652 29.0293 21.5241 29.8865 21.2588 29.2549C20.6038 27.6959 19.9074 28.0091 18.9999 28.0091V26.249C20.4971 26.0109 22.0837 26.8299 22.3478 28.3527Z" fill="black" stroke="black"/>
<path d="M29.4366 34.2227C29.4366 38.5338 20.5423 38.4431 20.633 34.2227C20.633 29.8663 29.4366 29.8209 29.4366 34.2227Z" fill="white"/>
<path d="M25.4745 34.2853C25.5657 33.7559 24.8337 33.0853 24.6274 33.5794C24.118 34.7991 23.5764 34.5541 22.8705 34.5541V35.8606C24.1411 36.1429 25.2691 35.4767 25.4745 34.2853Z" fill="black" stroke="black"/>
<path d="M21.1842 34.2628C21.093 33.7366 21.8249 33.0699 22.0313 33.5611C22.5407 34.7737 23.0823 34.5301 23.7882 34.5301V35.8991C22.6237 36.0842 21.3896 35.4472 21.1842 34.2628Z" fill="black" stroke="black"/>
<path d="M29.014 34.2853C29.1053 33.7559 28.3733 33.0853 28.1669 33.5794C27.6576 34.7991 27.1159 34.5541 26.41 34.5541V35.8606C27.6806 36.1429 28.8086 35.4767 29.014 34.2853Z" fill="black" stroke="black"/>
<path d="M24.7237 34.2628C24.6324 33.7366 25.3644 33.0699 25.5707 33.5611C26.0801 34.7737 26.6218 34.5301 27.3277 34.5301V35.8991C26.1632 36.0842 24.9291 35.4472 24.7237 34.2628Z" fill="black" stroke="black"/>
<path d="M24.2092 33.1829C24.6242 33.8011 25.5336 33.8011 25.9486 33.1829V33.1829C26.4158 32.4869 25.9171 31.5514 25.0789 31.5514V31.5514C24.2407 31.5514 23.742 32.4869 24.2092 33.1829V33.1829Z" fill="black"/>
<path d="M10.7614 11.7343C13.8412 10.7672 15.8605 8.30181 16.5056 5.27828C17.0286 2.82738 14.6158 0.917982 12.1668 1.44958C8.79681 2.18107 6.95977 3.81344 6.58018 7.92529C6.35719 10.3408 8.44703 12.4611 10.7614 11.7343Z" fill="black"/>
<path d="M11.939 8.00013C12.4637 7.60743 12.8956 7.11773 13.2257 6.55865C14.5 4.40051 11.7596 1.93728 9.62371 3.24854C9.02954 3.61331 8.59107 4.12327 8.30506 4.84623C7.41268 7.10188 9.99707 9.45375 11.939 8.00013Z" fill="#432F30"/>
<path d="M48.1086 27.8809C49.833 35.2778 35.9469 34.234 37.2629 27.8809C41.4993 30.5963 43.8714 30.6106 48.1086 27.8809Z" fill="black" fill-opacity="0.5"/>
<defs>
<filter id="filter0_i" x="30.5763" y="18.1224" width="5.5762" height="10.4126" filterUnits="userSpaceOnUse" color-interpolation-filters="sRGB">
<feFlood flood-opacity="0" result="BackgroundImageFix"/>
<feBlend mode="normal" in="SourceGraphic" in2="BackgroundImageFix" result="shape"/>
<feColorMatrix in="SourceAlpha" type="matrix" values="0 0 0 0 0 0 0 0 0 0 0 0 0 0 0 0 0 0 127 0" result="hardAlpha"/>
<feOffset dy="4"/>
<feGaussianBlur stdDeviation="2"/>
<feComposite in2="hardAlpha" operator="arithmetic" k2="-1" k3="1"/>
<feColorMatrix type="matrix" values="0 0 0 0 0 0 0 0 0 0 0 0 0 0 0 0 0 0 0.25 0"/>
<feBlend mode="normal" in2="shape" result="effect1_innerShadow"/>
</filter>
<filter id="filter1_i" x="30.5762" y="18.1224" width="4.73978" height="9.11151" filterUnits="userSpaceOnUse" color-interpolation-filters="sRGB">
<feFlood flood-opacity="0" result="BackgroundImageFix"/>
<feBlend mode="normal" in="SourceGraphic" in2="BackgroundImageFix" result="shape"/>
<feColorMatrix in="SourceAlpha" type="matrix" values="0 0 0 0 0 0 0 0 0 0 0 0 0 0 0 0 0 0 127 0" result="hardAlpha"/>
<feOffset dy="4"/>
<feGaussianBlur stdDeviation="2"/>
<feComposite in2="hardAlpha" operator="arithmetic" k2="-1" k3="1"/>
<feColorMatrix type="matrix" values="0 0 0 0 0 0 0 0 0 0 0 0 0 0 0 0 0 0 0.25 0"/>
<feBlend mode="normal" in2="shape" result="effect1_innerShadow"/>
</filter>
<filter id="filter2_i" x="13.9404" y="18.1224" width="5.52982" height="10.4126" filterUnits="userSpaceOnUse" color-interpolation-filters="sRGB">
<feFlood flood-opacity="0" result="BackgroundImageFix"/>
<feBlend mode="normal" in="SourceGraphic" in2="BackgroundImageFix" result="shape"/>
<feColorMatrix in="SourceAlpha" type="matrix" values="0 0 0 0 0 0 0 0 0 0 0 0 0 0 0 0 0 0 127 0" result="hardAlpha"/>
<feOffset dy="4"/>
<feGaussianBlur stdDeviation="2"/>
<feComposite in2="hardAlpha" operator="arithmetic" k2="-1" k3="1"/>
<feColorMatrix type="matrix" values="0 0 0 0 0 0 0 0 0 0 0 0 0 0 0 0 0 0 0.25 0"/>
<feBlend mode="normal" in2="shape" result="effect1_innerShadow"/>
</filter>
<filter id="filter3_i" x="14.7761" y="18.1224" width="4.69333" height="9.11151" filterUnits="userSpaceOnUse" color-interpolation-filters="sRGB">
<feFlood flood-opacity="0" result="BackgroundImageFix"/>
<feBlend mode="normal" in="SourceGraphic" in2="BackgroundImageFix" result="shape"/>
<feColorMatrix in="SourceAlpha" type="matrix" values="0 0 0 0 0 0 0 0 0 0 0 0 0 0 0 0 0 0 127 0" result="hardAlpha"/>
<feOffset dy="4"/>
<feGaussianBlur stdDeviation="2"/>
<feComposite in2="hardAlpha" operator="arithmetic" k2="-1" k3="1"/>
<feColorMatrix type="matrix" values="0 0 0 0 0 0 0 0 0 0 0 0 0 0 0 0 0 0 0.25 0"/>
<feBlend mode="normal" in2="shape" result="effect1_innerShadow"/>
</filter>
</defs>
</svg>
